<?xml version="1.0" encoding="UTF-8"?>
<svg id="Layer_2" data-name="Layer 2" xmlns="http://www.w3.org/2000/svg" viewBox="0 0 355.66 421.52">
  <defs>
    <style>
      .cls-1 {
        fill: #4d4d4d;
      }
    </style>
  </defs>
  <g id="Layer_1-2" data-name="Layer 1">
    <polygon class="cls-1"
      points="193.29 230.45 206.81 222.83 222 214.27 241.6 203.23 256.78 194.67 276.38 183.63 291.57 175.07 311.16 164.02 311.17 164.02 326.35 155.47 343.56 145.78 355.66 138.96 355.66 156.53 341.77 164.36 326.57 172.91 306.97 183.96 291.79 192.52 272.19 203.56 257 212.12 237.4 223.16 222.22 231.72 193.29 248.02 193.29 273.67 244.7 244.7 259.89 236.15 279.49 225.1 294.67 216.54 314.27 205.5 329.45 196.94 329.47 196.94 349.07 185.9 355.66 182.18 355.66 199.74 344.85 205.84 329.67 214.4 310.07 225.43 294.88 234 275.28 245.03 260.1 253.59 193.29 291.24 193.29 315.82 281.65 266.04 296.83 257.48 316.43 246.44 331.63 237.88 351.22 226.84 355.66 224.33 355.66 241.89 347.01 246.76 331.83 255.32 312.23 266.37 297.03 274.92 193.29 333.38 193.29 355.14 316.11 285.94 331.29 277.38 350.89 266.33 350.91 266.33 355.66 263.65 355.66 281.22 346.69 286.27 331.51 294.82 193.29 372.71 193.29 394.46 350.57 305.83 355.66 308.77 355.66 320.54 193.29 412.03 176.45 421.52 176.29 421.43 176.29 205.2 169.51 201.29 158.03 194.67 158.03 410.89 141.97 401.62 141.03 401.07 141.03 184.85 122.78 174.32 122.78 390.54 107.51 381.72 105.77 380.72 105.77 164.49 87.52 153.95 87.52 370.19 70.56 360.39 70.51 360.36 70.51 144.14 52.26 133.6 52.26 349.82 35.26 340.01 35.26 123.78 17.01 113.25 17.01 329.47 0 319.65 0 105.76 2.06 104.61 17.01 96.18 17.24 96.05 35.26 106.45 52.26 116.27 70.51 126.8 87.52 136.63 105.77 147.17 122.78 156.99 141.03 167.52 158.03 177.34 176.29 187.87 184.7 192.74 193.29 187.89 204.3 181.69 193.29 175.33 176.29 165.52 158.03 154.98 141.03 145.16 122.78 134.63 105.77 124.81 87.52 114.26 70.51 104.45 52.26 93.91 36.84 85 52.03 76.45 52.26 76.58 70.51 87.13 87.52 96.94 105.77 107.48 122.78 117.3 141.03 127.83 158.03 137.65 176.29 148.2 193.29 158.01 219.48 173.13 239.08 162.09 193.29 135.65 176.29 125.83 158.03 115.3 141.03 105.48 122.78 94.95 105.77 85.13 87.52 74.58 71.63 65.42 86.81 56.85 87.52 57.26 105.77 67.81 122.78 77.63 141.03 88.16 158.03 97.98 176.29 108.51 193.29 118.33 254.26 153.53 273.87 142.49 193.29 95.96 176.29 86.14 158.03 75.61 141.03 65.79 122.78 55.26 106.41 45.8 121.59 37.24 122.78 37.94 141.03 48.47 158.03 58.29 176.29 68.82 193.29 78.64 289.05 133.93 306.26 124.24 193.29 59.01 176.29 49.19 158.03 38.66 141.03 28.84 138.8 27.55 141.03 26.29 153.99 18.99 158.03 21.34 176.29 31.87 193.29 41.69 321.44 115.68 339.97 105.24 193.29 20.55 176.29 10.73 172.52 8.56 176.29 6.43 187.7 0 193.29 3.23 355.15 96.69 355.16 96.69 355.66 96.98 355.66 113.97 355.38 114.13 355.37 114.13 336.85 124.57 321.66 133.13 304.47 142.82 289.27 151.39 269.67 162.42 254.48 170.98 234.89 182.02 219.7 190.58 200.1 201.63 193.29 205.46 193.29 230.45" />
  </g>
</svg>